<?xml version="1.0" standalone="no"?><!-- Generator: Gravit.io --><svg xmlns="http://www.w3.org/2000/svg" xmlns:xlink="http://www.w3.org/1999/xlink" style="isolation:isolate" viewBox="625.355 330.176 19.641 22.201" width="19.641" height="22.201"><path d=" M 643.864 339.296 L 628.753 330.484 C 628.23 330.178 627.62 330.096 627.035 330.256 C 626.45 330.413 625.963 330.792 625.661 331.321 C 625.357 331.851 625.277 332.467 625.433 333.057 C 625.589 333.646 625.964 334.141 626.489 334.446 L 638.203 341.277 L 626.489 348.108 C 625.965 348.415 625.59 348.907 625.433 349.497 C 625.277 350.088 625.357 350.704 625.66 351.233 C 626.062 351.939 626.814 352.377 627.622 352.377 C 628.018 352.377 628.41 352.271 628.753 352.071 L 643.864 343.258 C 644.562 342.85 644.996 342.092 644.996 341.278 C 644.995 340.462 644.562 339.704 643.864 339.296 Z " fill="rgb(255,255,255)"/></svg>