<svg xmlns="http://www.w3.org/2000/svg" xmlns:xlink="http://www.w3.org/1999/xlink" style="isolation:isolate" viewBox="1062 23 28.41 30" width="28.41" height="30"><path d=" M 1076.204 53 C 1079.842 53 1083.002 51.018 1084.707 48.086 L 1090.409 48.086 L 1090.409 44.81 L 1085.886 44.81 C 1085.969 44.269 1086.034 43.729 1086.034 43.171 L 1086.034 41.533 L 1090.409 41.533 L 1090.409 38.257 L 1086.034 38.257 L 1086.034 36.62 C 1086.034 36.065 1085.969 35.522 1085.886 34.982 L 1090.41 34.982 L 1090.41 31.706 L 1084.707 31.706 C 1083.968 30.425 1082.949 29.327 1081.725 28.495 L 1085.051 25.31 L 1082.74 23 L 1078.53 27.07 C 1077.778 26.889 1077.008 26.791 1076.204 26.791 C 1075.402 26.791 1074.633 26.889 1073.896 27.07 L 1069.745 23 L 1067.436 25.31 L 1070.668 28.495 C 1069.456 29.329 1068.44 30.427 1067.704 31.706 L 1062 31.706 L 1062 34.982 L 1066.524 34.982 C 1066.443 35.522 1066.377 36.065 1066.377 36.62 L 1066.377 38.257 L 1062 38.257 L 1062 41.533 L 1066.377 41.533 L 1066.377 43.171 C 1066.377 43.729 1066.443 44.269 1066.524 44.81 L 1062 44.81 L 1062 48.086 L 1067.704 48.086 C 1069.406 51.018 1072.569 53 1076.204 53 Z  M 1072.928 34.982 L 1079.48 34.982 L 1079.48 38.257 L 1072.928 38.257 L 1072.928 34.982 Z  M 1072.928 41.533 L 1079.48 41.533 L 1079.48 44.811 L 1072.928 44.811 L 1072.928 41.533 Z " fill="rgb(255,255,255)"/></svg>