<?xml version="1.0" standalone="no"?><!-- Generator: Gravit.io --><svg xmlns="http://www.w3.org/2000/svg" xmlns:xlink="http://www.w3.org/1999/xlink" style="isolation:isolate" viewBox="1127 23 30.947 30" width="30.947" height="30"><path d=" M 1142.474 23 C 1133.928 23 1127 29.884 1127 38.379 C 1127 45.171 1131.434 50.938 1137.582 52.968 C 1138.356 53.11 1138.637 52.637 1138.637 52.229 C 1138.637 51.866 1138.624 50.9 1138.618 49.615 C 1134.314 50.546 1133.404 47.552 1133.404 47.552 C 1132.7 45.778 1131.686 45.304 1131.686 45.304 C 1130.281 44.35 1131.794 44.369 1131.794 44.369 C 1133.347 44.48 1134.165 45.955 1134.165 45.955 C 1135.545 48.304 1137.787 47.625 1138.668 47.234 C 1138.807 46.239 1139.208 45.563 1139.65 45.178 C 1136.215 44.789 1132.602 43.469 1132.602 37.58 C 1132.602 35.9 1133.205 34.526 1134.194 33.453 C 1134.036 33.064 1133.502 31.501 1134.345 29.385 C 1134.345 29.385 1135.643 28.972 1138.602 30.964 C 1139.837 30.623 1141.16 30.449 1142.477 30.446 C 1143.79 30.453 1145.117 30.623 1146.351 30.964 C 1149.307 28.975 1150.602 29.385 1150.602 29.385 C 1151.445 31.504 1150.915 33.067 1150.757 33.453 C 1151.748 34.526 1152.348 35.9 1152.348 37.58 C 1152.348 43.485 1148.732 44.786 1145.284 45.165 C 1145.84 45.639 1146.332 46.58 1146.332 48.017 C 1146.332 50.072 1146.314 51.73 1146.314 52.232 C 1146.314 52.643 1146.591 53.123 1147.378 52.971 C 1153.517 50.928 1157.947 45.168 1157.947 38.376 C 1157.947 29.884 1151.019 23 1142.474 23 Z " fill="rgb(255,255,255)"/></svg>