<svg xmlns="http://www.w3.org/2000/svg" style="isolation:isolate" viewBox="0.04 0 64 63.13" width="64" height="63.13"><defs><clipPath id="a"><path d="M.04 0h64v63.13h-64z"/></clipPath></defs><g clip-path="url(#a)"><path d="M23.04 54.87s9.7 1.09 22.9-8.27c-5.38-.23-10.26-.94-10.63-1.83 2.29 1.1 8.1.3 12.94.04a55.45 55.45 0 0 0 6.95-6.12C69.38 24.34 62.24 0 62.24 0a43.68 43.68 0 0 1-17.15 17.19c-1.45 2.28-3.11 5.15-3.8 7.75.45-2.27.63-4.22 1.5-6.38-17.84 9.78-38.44 12.1-29.65 32.34-2.46-5.28-3.14-5.3-5.05-8.33l1.03 5.02c.65 2.91 3.47 4.82 3.47 4.82L.04 61.63l1.1 1.5 12.42-9.28s3.52 3.9 12.85 4.08A41.58 41.58 0 0 0 19.39 54l3.65.86zM29 37.07c3.45-2.7 15.48-9.52 18.26-11.32q3.75-2.45 6.99-5.32Q51.6 23 48.56 25.2c-4.1 2.89-16.15 10.84-19.68 13.8-9.95 8.4-13.22 11.8-13.22 11.8s5.3-7.46 13.34-13.74z" fill="#666"/></g></svg>
