<?xml version="1.0" standalone="no"?><!-- Generator: Gravit.io --><svg xmlns="http://www.w3.org/2000/svg" xmlns:xlink="http://www.w3.org/1999/xlink" style="isolation:isolate" viewBox="0 0 64 52.636" width="64" height="52.636"><defs><clipPath id="_clipPath_5HKnWOaWqgZKVl7HFkN527Xq0D0oVaQo"><rect x="0" y="0" width="64" height="52.636"/></clipPath></defs><g clip-path="url(#_clipPath_5HKnWOaWqgZKVl7HFkN527Xq0D0oVaQo)"><g><path d=" M 0 20.765 L 9.582 15.2 L 30.553 27.304 L 20.97 32.87 L 0 20.765 Z  M 31.275 52.636 L 10.306 40.532 L 10.306 28.387 L 20.609 34.334 C 20.722 34.399 20.846 34.432 20.971 34.432 C 21.098 34.432 21.221 34.399 21.336 34.332 L 31.279 28.556 L 31.275 52.636 Z  M 53.689 40.532 L 32.722 52.636 L 32.73 28.561 L 42.669 34.331 C 42.892 34.463 43.17 34.463 43.393 34.333 L 53.689 28.392 L 53.689 40.532 L 53.689 40.532 Z  M 64 20.764 L 43.035 32.87 L 33.449 27.303 L 54.416 15.197" fill="rgb(102,102,102)"/><path d=" M 44.757 10.097 C 45.364 8.593 45.649 8.004 46.282 7.006 C 49.853 1.359 58.33 0.872 58.33 0.872 C 47.845 -3.001 38.925 7.286 38.925 7.286 L 34.232 5.032 L 36.462 20.37 L 49.829 12.535 L 44.757 10.097 Z " fill="rgb(102,102,102)"/><path d=" M 20.153 10.097 C 19.546 8.593 19.26 8.004 18.629 7.006 C 15.058 1.359 6.58 0.873 6.58 0.873 C 17.065 -3.001 25.986 7.287 25.986 7.287 L 30.678 5.032 L 28.449 20.371 L 15.082 12.534 L 20.153 10.097 Z " fill="rgb(102,102,102)"/></g></g></svg>