<?xml version="1.0" standalone="no"?><!-- Generator: Gravit.io --><svg xmlns="http://www.w3.org/2000/svg" xmlns:xlink="http://www.w3.org/1999/xlink" style="isolation:isolate" viewBox="0.038 0 64 63.135" width="64" height="63.135"><defs><clipPath id="_clipPath_FXz7iHniVmWbCzbXuuYwQVmUKJ6mqb6b"><rect x="0.038" y="0" width="64" height="63.135"/></clipPath></defs><g clip-path="url(#_clipPath_FXz7iHniVmWbCzbXuuYwQVmUKJ6mqb6b)"><g><path d=" M 23.041 54.872 C 23.041 54.872 32.746 55.96 45.946 46.602 C 40.563 46.371 35.678 45.66 35.309 44.77 C 37.599 45.878 43.41 45.069 48.25 44.812 C 51.065 42.689 52.735 41.199 55.205 38.691 C 69.382 24.342 62.239 0 62.239 0 C 59.379 5.21 55.476 9.788 50.767 13.452 C 48.781 14.962 47.266 15.954 45.094 17.188 C 43.64 19.467 41.978 22.337 41.287 24.944 C 41.741 22.67 41.917 20.716 42.781 18.563 C 24.949 28.344 4.354 30.658 13.141 50.9 C 10.676 45.622 10.003 45.596 8.088 42.573 C 8.088 42.573 8.735 45.699 9.123 47.595 C 9.77 50.503 12.585 52.412 12.585 52.412 L 0.038 61.63 L 1.145 63.135 L 13.562 53.847 C 13.562 53.847 17.082 57.741 26.405 57.927 C 24.199 56.4 21.848 55.089 19.385 54.013 L 23.041 54.872 Z  M 29 37.063 C 32.445 34.375 44.484 27.551 47.255 25.745 Q 51.006 23.301 54.248 20.428 Q 51.596 23.004 48.561 25.198 C 44.465 28.087 32.407 36.04 28.88 38.999 C 18.935 47.397 15.664 50.791 15.664 50.791 C 15.664 50.791 20.951 43.342 29 37.063 Z " fill="rgb(102,102,102)"/></g></g></svg>