<svg xmlns="http://www.w3.org/2000/svg" style="isolation:isolate" viewBox="255.75 767.62 41.78 40" width="41.78" height="40"><g fill="#666"><ellipse vector-effect="non-scaling-stroke" cx="286.91" cy="778.74" rx="2.96" ry="2.83"/><path d="M297.47 804.4l-1.78-16.78 1.78-16.8a2.61 2.61 0 0 0-.73-2.4c-.5-.49-1.22-.8-2-.8h-.02c-.19 0-.37.02-.55.05l-17.53 1.7-17.54-1.7a3 3 0 0 0-.55-.05h-.01c-.79 0-1.5.31-2 .82a2.6 2.6 0 0 0-.8 1.85v.01c0 .18.03.36.06.53l1.78 16.79-1.77 16.79a2.6 2.6 0 0 0-.06.52v.02c0 .72.3 1.37.78 1.85.51.5 1.22.82 2.01.82h.01a3 3 0 0 0 .55-.05l17.54-1.7 17.54 1.7c.17.03.36.05.54.05h.01c.8 0 1.53-.33 2.04-.85a2.6 2.6 0 0 0 .76-1.82v-.01c0-.19-.02-.36-.06-.53zm-16.16-9.39h-.9c-.19.44-.43.95-.74 1.5l.64.5a2.38 2.38 0 0 1 0 3.5 2.7 2.7 0 0 1-3.7-.02l-.56-.63c-.57.3-1.23.52-1.69.7v.86c0 1.38-1.28 2.5-2.72 2.5-1.44 0-2.72-1.12-2.72-2.5v-.87c-.46-.17-1.18-.4-1.74-.7l-.65.62a2.68 2.68 0 0 1-3.68 0 2.42 2.42 0 0 1 0-3.54l.65-.43c-.3-.54-.55-1.05-.73-1.49h-.9a2.65 2.65 0 0 1-2.62-2.6c0-1.4 1.17-2.62 2.61-2.62h.9c.19-.87.44-1.24.75-1.78l-.65-.67a2.45 2.45 0 0 1 0-3.56 2.71 2.71 0 0 1 3.71-.01l.6.6c.57-.29 1.3-.53 1.75-.7v-.87c0-1.38 1.27-2.5 2.72-2.5 1.44 0 2.73 1.12 2.73 2.5v.87c.45.17 1.11.4 1.68.7l.6-.62a2.67 2.67 0 0 1 3.68 0c1.02.99 1.01 2.58 0 3.55l-.66.7c.31.55.55.92.73 1.8h.91a2.65 2.65 0 0 1 2.61 2.6c0 1.38-1.17 2.61-2.6 2.61zm13.11-11.73a2.37 2.37 0 0 1-3.18.7l-.63-.39a6.4 6.4 0 0 1-2.94 1.12l-.19.7a2.32 2.32 0 0 1-2.8 1.6 2.2 2.2 0 0 1-1.68-2.68l.2-.74a6.08 6.08 0 0 1-1.98-2.3l-.82.04a2.28 2.28 0 0 1-2.46-2.06 2.24 2.24 0 0 1 2.16-2.35l.84-.05a6 6 0 0 1 1.65-2.49l-.32-.76a2.18 2.18 0 0 1 1.29-2.87c1.18-.46 2.52.1 3 1.23l.3.75c1.08 0 2.1.25 3 .7l.62-.5a2.38 2.38 0 0 1 3.25.3c.81.93.68 2.32-.3 3.1l-.58.47a5.83 5.83 0 0 1 .23 3.06l.62.37c1.08.65 1.4 2.02.72 3.05z"/><ellipse vector-effect="non-scaling-stroke" cx="271.59" cy="792.11" rx="5.52" ry="5.29"/></g></svg>
