<svg xmlns="http://www.w3.org/2000/svg" xmlns:xlink="http://www.w3.org/1999/xlink" version="1.1" style="" xml:space="preserve" width="30" height="30"><rect id="backgroundrect" width="100%" height="100%" x="0" y="0" fill="none" stroke="none" class="" style=""/><g class="currentLayer" style=""><title>Layer 1</title><g id="svg_1" class="" fill-opacity="1" fill="#aaaaaa"><path d="M21.13074655289112,6.643471827993867 c-0.7985438510236953,-0.8271357608490766 -2.0884993026773566,-0.8271357608490766 -2.8870431537010517,0 L7.739780435724537,17.502279765294563 c-0.040950966719163914,0.04241721850508089 -0.061426450078745816,0.06362582775762138 -0.08190193343832784,0.10604304626270217 c0,0 0,0.02120860925254044 -0.02047548335958197,0.02120860925254044 c-0.02047548335958197,0.04241721850508089 -0.040950966719163914,0.06362582775762138 -0.040950966719163914,0.10604304626270217 c0,0 0,0.02120860925254044 0,0.02120860925254044 L6.2041191837558936,22.46509433038902 c-0.061426450078745816,0.23329470177794498 0,0.4665894035558895 0.14332838351707355,0.636258277576213 c0.12285290015749166,0.12725165551524262 0.2661812836745651,0.1908774832728639 0.42998515055122083,0.1908774832728639 c0.061426450078745816,0 0.12285290015749166,0 0.18427935023623743,-0.02120860925254044 l4.525081822467606,-1.4421854291727485 c0,0 0.02047548335958197,0 0.02047548335958197,0 c0.040950966719163914,-0.02120860925254044 0.08190193343832784,-0.02120860925254044 0.10237741679790968,-0.04241721850508089 c0,0 0.02047548335958197,0 0.02047548335958197,-0.02120860925254044 c0.040950966719163914,-0.02120860925254044 0.08190193343832784,-0.04241721850508089 0.10237741679790968,-0.08483443701016186 l10.483447480105946,-10.858807937300696 c0.7985438510236953,-0.8271357608490766 0.7985438510236953,-2.1632781437591233 0,-2.9904139046081997 L21.13074655289112,6.643471827993867 zM7.719304952364957,21.680375788045026 l0.7575928843045318,-2.523824501052311 l1.6994651188453005,1.7603145679608556 L7.719304952364957,21.680375788045026 zM11.322990023651377,20.3018161866299 L9.050211370737781,17.968869168850453 l7.944487543517787,-8.228940389985683 l2.272778652913594,2.354155627031987 L11.322990023651377,20.3018161866299 zM21.355976869846522,9.888389043632552 l-1.2285290015749157,1.2725165551524256 L17.875144698717595,8.82795858100553 l1.2285290015749157,-1.2725165551524256 c0.32760773375331104,-0.33933774804064704 0.8394948177428595,-0.33933774804064704 1.1671025514961701,0 l1.1056761014174241,1.1452648996371828 C21.683584603599833,9.018836064278394 21.683584603599833,9.570259904844447 21.355976869846522,9.888389043632552 z" id="svg_2" fill="#aaaaaa"/></g></g></svg>