<svg xmlns="http://www.w3.org/2000/svg" style="isolation:isolate" width="64" height="52.64"><defs><clipPath id="a"><path d="M0 0h64v52.64H0z"/></clipPath></defs><g fill="#666" clip-path="url(#a)"><path d="M0 20.77l9.58-5.57 20.97 12.1-9.58 5.57L0 20.77zm31.27 31.87l-20.96-12.1V28.38l10.3 5.94a.72.72 0 0 0 .73 0l9.94-5.77v24.08zm22.42-12.1l-20.97 12.1.01-24.08 9.94 5.77c.22.13.5.13.72 0l10.3-5.94v12.14zM64 20.75L43.03 32.87l-9.58-5.57 20.97-12.1M44.76 10.1c.6-1.5.89-2.1 1.52-3.1C49.85 1.37 58.33.88 58.33.88 47.85-3 38.93 7.3 38.93 7.3l-4.7-2.26 2.23 15.34 13.37-7.84-5.07-2.43zM20.15 10.1c-.6-1.5-.89-2.1-1.52-3.1C15.06 1.37 6.58.88 6.58.88 17.07-3 25.98 7.3 25.98 7.3l4.7-2.26-2.23 15.34-13.37-7.84 5.07-2.43z"/></g></svg>
