<?xml version="1.0" standalone="no"?><!-- Generator: Gravit.io --><svg xmlns="http://www.w3.org/2000/svg" xmlns:xlink="http://www.w3.org/1999/xlink" style="isolation:isolate" viewBox="255.748 767.619 41.779 40" width="41.779" height="40"><g><g><ellipse vector-effect="non-scaling-stroke" cx="286.9103268551107" cy="778.7391109640118" rx="2.958762660684272" ry="2.8328283282833127" fill="rgb(102,102,102)"/><path d=" M 297.469 804.409 L 295.694 787.619 L 297.469 770.829 C 297.505 770.659 297.524 770.483 297.524 770.303 L 297.526 770.293 C 297.526 769.572 297.225 768.917 296.74 768.436 C 296.231 767.933 295.52 767.619 294.734 767.619 L 294.723 767.62 C 294.535 767.62 294.352 767.639 294.175 767.672 L 276.637 769.373 L 259.099 767.673 C 258.921 767.64 258.738 767.621 258.551 767.621 L 258.54 767.619 C 257.753 767.619 257.042 767.933 256.534 768.436 C 256.048 768.918 255.748 769.572 255.748 770.293 L 255.749 770.303 C 255.749 770.483 255.768 770.659 255.805 770.829 L 257.579 787.619 L 255.805 804.409 C 255.769 804.579 255.75 804.755 255.749 804.935 L 255.748 804.946 C 255.748 805.667 256.048 806.32 256.534 806.802 C 257.042 807.306 257.753 807.619 258.54 807.619 L 258.551 807.618 C 258.739 807.617 258.921 807.599 259.099 807.565 L 276.637 805.866 L 294.175 807.565 C 294.352 807.599 294.535 807.617 294.723 807.617 L 294.734 807.619 C 295.536 807.619 296.257 807.293 296.768 806.773 C 297.237 806.296 297.527 805.652 297.527 804.946 L 297.525 804.937 C 297.524 804.755 297.505 804.579 297.469 804.409 Z  M 281.311 795.01 L 280.402 795.01 C 280.222 795.445 279.976 795.962 279.668 796.505 L 280.308 797.007 C 281.33 797.986 281.327 799.529 280.307 800.506 C 279.287 801.486 277.627 801.462 276.606 800.485 L 276.052 799.859 C 275.483 800.154 274.82 800.38 274.365 800.551 L 274.365 801.419 C 274.365 802.802 273.083 803.923 271.641 803.923 C 270.196 803.924 268.916 802.802 268.916 801.419 L 268.916 800.551 C 268.462 800.379 267.743 800.146 267.176 799.851 L 266.533 800.466 C 265.511 801.444 263.867 801.447 262.847 800.469 C 261.824 799.493 261.832 797.912 262.854 796.934 L 263.499 796.504 C 263.191 795.962 262.949 795.446 262.769 795.01 L 261.864 795.01 C 260.419 795.01 259.247 793.783 259.247 792.402 C 259.247 791.017 260.419 789.793 261.862 789.793 L 262.769 789.793 C 262.948 788.923 263.197 788.551 263.505 788.008 L 262.861 787.34 C 261.843 786.366 261.845 784.759 262.869 783.78 C 263.889 782.804 265.554 782.792 266.573 783.767 L 267.175 784.378 C 267.742 784.083 268.461 783.842 268.915 783.67 L 268.915 782.798 C 268.915 781.419 270.195 780.298 271.641 780.298 C 273.083 780.298 274.365 781.42 274.365 782.799 L 274.365 783.668 C 274.819 783.841 275.483 784.077 276.05 784.371 L 276.659 783.755 C 277.677 782.78 279.31 782.78 280.332 783.758 C 281.352 784.735 281.341 786.325 280.323 787.3 L 279.673 788.007 C 279.981 788.55 280.222 788.923 280.4 789.794 L 281.311 789.794 C 282.75 789.794 283.922 791.018 283.922 792.402 C 283.923 793.783 282.751 795.01 281.311 795.01 Z  M 294.423 783.28 C 293.744 784.314 292.318 784.622 291.24 783.972 L 290.614 783.594 C 289.772 784.184 288.767 784.582 287.668 784.708 L 287.48 785.419 C 287.167 786.602 285.909 787.318 284.676 787.018 C 283.438 786.72 282.692 785.517 283.005 784.334 L 283.202 783.591 C 282.358 782.999 281.671 782.206 281.221 781.281 L 280.4 781.333 C 279.128 781.413 278.028 780.489 277.944 779.274 C 277.86 778.055 278.824 777.003 280.095 776.923 L 280.944 776.87 C 281.27 775.917 281.839 775.065 282.587 774.383 L 282.267 773.619 C 281.794 772.485 282.371 771.199 283.556 770.747 C 284.738 770.293 286.081 770.846 286.554 771.979 L 286.867 772.731 C 287.943 772.722 288.963 772.976 289.858 773.434 L 290.477 772.939 C 291.457 772.159 292.915 772.287 293.729 773.224 C 294.545 774.162 294.41 775.555 293.431 776.336 L 292.854 776.798 C 293.028 777.287 293.139 777.806 293.177 778.346 C 293.212 778.865 293.178 779.372 293.082 779.861 L 293.701 780.234 C 294.78 780.883 295.101 782.249 294.423 783.28 Z " fill="rgb(102,102,102)"/><ellipse vector-effect="non-scaling-stroke" cx="271.5859249356109" cy="792.110044673349" rx="5.523552829272319" ry="5.288452884528851" fill="rgb(102,102,102)"/></g></g></svg>