<svg xmlns="http://www.w3.org/2000/svg" xmlns:xlink="http://www.w3.org/1999/xlink" version="1.1" style="" xml:space="preserve" width="30" height="30"><rect id="backgroundrect" width="100%" height="100%" x="0" y="0" fill="none" stroke="none" class="" style=""/><g class="currentLayer" style=""><title>Layer 1</title><g id="svg_1" class="" fill="#aaaaaa" fill-opacity="1"><path d="M24.548293828964233,23.120457576751708 H9.548293828964233 c-0.552,0 -1,-0.4470000000000001 -1,-1 s0.4480000000000001,-1 1,-1 h15 c0.553,0 1,0.4470000000000001 1,1 S25.101293828964234,23.120457576751708 24.548293828964233,23.120457576751708 z" id="svg_2" fill="#aaaaaa" fill-opacity="1"/><path d="M24.548293828964233,17.120457576751708 H9.548293828964233 c-0.552,0 -1,-0.4470000000000001 -1,-1 c0,-0.553 0.4480000000000001,-1 1,-1 h15 c0.553,0 1,0.4470000000000001 1,1 C25.548293828964233,16.672457576751707 25.101293828964234,17.120457576751708 24.548293828964233,17.120457576751708 z" id="svg_3" fill="#aaaaaa" fill-opacity="1"/><path d="M24.548293828964233,11.12045757675171 H9.548293828964233 c-0.552,0 -1,-0.4470000000000001 -1,-1 s0.4480000000000001,-1 1,-1 h15 c0.553,0 1,0.4470000000000001 1,1 S25.101293828964234,11.12045757675171 24.548293828964233,11.12045757675171 z" id="svg_4" fill="#aaaaaa" fill-opacity="1"/><circle cx="5.548293828964233" cy="10.120457172393799" r="1" id="svg_5" fill="#aaaaaa" fill-opacity="1"/><circle cx="5.548293828964233" cy="16.1204571723938" r="1" id="svg_6" fill="#aaaaaa" fill-opacity="1"/><circle cx="5.548293828964233" cy="22.12045907974243" r="1" id="svg_7" fill="#aaaaaa" fill-opacity="1"/></g></g></svg>